<svg xmlns="http://www.w3.org/2000/svg" width="32" height="32" viewBox="0 0 32 32" fill="none">
  <rect width="32" height="32" rx="8" fill="#ffffff"/>
  <path d="M16 8C11.582 8 8 11.582 8 16C8 20.418 11.582 24 16 24C20.418 24 24 20.418 24 16C24 11.582 20.418 8 16 8ZM16 10C19.314 10 22 12.686 22 16C22 19.314 19.314 22 16 22C12.686 22 10 19.314 10 16C10 12.686 12.686 10 16 10ZM16 12C14.895 12 14 12.895 14 14V18C14 19.105 14.895 20 16 20C17.105 20 18 19.105 18 18V14C18 12.895 17.105 12 16 12Z" fill="black"/>
</svg>
